<svg width="97" height="110" viewBox="0 0 97 110" fill="none" xmlns="http://www.w3.org/2000/svg">
<path fill-rule="evenodd" clip-rule="evenodd" d="M23.4001 12.6669C25.1335 8.62237 29.1104 6 33.5107 6H64.9604C69.3607 6 73.3376 8.62237 75.071 12.6669L78.448 20.5467C78.9439 21.7037 79.2375 22.9373 79.316 24.1936L81.6985 62.3138C82.0943 68.6465 77.065 74 70.72 74H27.7512C21.4061 74 16.3768 68.6465 16.7726 62.3138L19.1551 24.1936C19.2336 22.9373 19.5272 21.7037 20.0231 20.5467L23.4001 12.6669ZM33.5107 12C31.5106 12 29.7029 13.192 28.915 15.0304L25.538 22.9102C25.3126 23.4361 25.1791 23.9968 25.1434 24.5679L22.7609 62.6881C22.581 65.5666 24.8671 68 27.7512 68H70.72C73.6041 68 75.8901 65.5666 75.7102 62.6881L73.3277 24.5679C73.292 23.9968 73.1586 23.4361 72.9332 22.9102L69.5561 15.0304C68.7682 13.192 66.9605 12 64.9604 12H33.5107Z" fill="white"/>
<path fill-rule="evenodd" clip-rule="evenodd" d="M20.0755 20.4243C18.9443 23.0638 20.8804 26 23.7521 26H74.719C77.5907 26 79.5268 23.0638 78.3956 20.4243L75.071 12.6669C73.3376 8.62237 69.3607 6 64.9604 6H33.5107C29.1104 6 25.1335 8.62237 23.4001 12.6669L20.0755 20.4243ZM26.7852 20L28.915 15.0304C29.7029 13.192 31.5106 12 33.5107 12H64.9604C66.9605 12 68.7682 13.192 69.5561 15.0304L71.686 20H26.7852Z" fill="white"/>
<path fill-rule="evenodd" clip-rule="evenodd" d="M37.2356 32C38.8925 32 40.2356 33.3431 40.2356 35C40.2356 36.1819 40.4684 37.3522 40.9207 38.4442C41.373 39.5361 42.0359 40.5282 42.8716 41.364C43.7074 42.1997 44.6995 42.8626 45.7914 43.3149C46.8834 43.7672 48.0537 44 49.2356 44C50.4175 44 51.5878 43.7672 52.6797 43.3149C53.7717 42.8626 54.7638 42.1997 55.5996 41.364C56.4353 40.5282 57.0982 39.5361 57.5505 38.4442C58.0028 37.3522 58.2356 36.1819 58.2356 35C58.2356 33.3431 59.5787 32 61.2356 32C62.8925 32 64.2356 33.3431 64.2356 35C64.2356 36.9698 63.8476 38.9204 63.0938 40.7403C62.34 42.5601 61.2351 44.2137 59.8422 45.6066C58.4493 46.9995 56.7957 48.1044 54.9758 48.8582C53.156 49.612 51.2054 50 49.2356 50C47.2658 50 45.3152 49.612 43.4953 48.8582C41.6755 48.1044 40.0219 46.9995 38.629 45.6066C37.2361 44.2137 36.1312 42.5601 35.3774 40.7403C34.6236 38.9204 34.2356 36.9698 34.2356 35C34.2356 33.3431 35.5787 32 37.2356 32Z" fill="white"/>
<path fill-rule="evenodd" clip-rule="evenodd" d="M49.2356 44C50.8924 44 52.2356 45.3431 52.2356 47L52.2356 59C52.2356 60.6569 50.8924 62 49.2356 62C47.5787 62 46.2356 60.6569 46.2356 59L46.2356 47C46.2356 45.3431 47.5787 44 49.2356 44Z" fill="white"/>
<path d="M89.5248 110C88.4241 110 87.4272 109.72 86.5339 109.16C85.6566 108.6 84.9628 107.824 84.4523 106.832C83.9578 105.824 83.7106 104.688 83.7106 103.424C83.7106 102.144 83.9578 101.008 84.4523 100.016C84.9628 99.024 85.6566 98.24 86.5339 97.664C87.4112 97.088 88.4082 96.8 89.5248 96.8C90.115 96.8 90.6812 96.896 91.2235 97.088C91.7818 97.264 92.2763 97.512 92.707 97.832C93.1377 98.152 93.4886 98.512 93.7598 98.912C93.9492 99.1802 94.0842 99.4563 94.1646 99.7402C94.223 99.9463 94.0761 100.144 93.8659 100.185C93.6125 100.234 93.377 100.04 93.377 99.7819V93C93.377 92.4477 93.8247 92 94.377 92H95.7506C96.3029 92 96.7506 92.4477 96.7506 93V108.76C96.7506 109.312 96.3029 109.76 95.7506 109.76H94.4966C93.9634 109.76 93.5239 109.342 93.4978 108.809L93.4199 107.219C93.41 107.018 93.5857 106.858 93.7847 106.887C93.9472 106.91 94.0685 107.054 94.0364 107.215C93.9795 107.5 93.8554 107.78 93.6641 108.056C93.4089 108.424 93.0659 108.76 92.6352 109.064C92.2205 109.352 91.742 109.584 91.1996 109.76C90.6732 109.92 90.115 110 89.5248 110ZM90.2665 107.168C90.9205 107.168 91.4788 107.008 91.9414 106.688C92.4199 106.368 92.7947 105.928 93.0659 105.368C93.3371 104.808 93.4727 104.16 93.4727 103.424C93.4727 102.672 93.3371 102.016 93.0659 101.456C92.7947 100.88 92.4199 100.44 91.9414 100.136C91.4788 99.816 90.9205 99.656 90.2665 99.656C89.6444 99.656 89.0941 99.816 88.6156 100.136C88.137 100.44 87.7622 100.88 87.491 101.456C87.2358 102.016 87.1082 102.672 87.1082 103.424C87.1082 104.16 87.2358 104.808 87.491 105.368C87.7622 105.928 88.137 106.368 88.6156 106.688C89.0941 107.008 89.6444 107.168 90.2665 107.168Z" fill="white"/>
<path d="M77.002 109.76C76.4498 109.76 76.002 109.312 76.002 108.76V98.064C76.002 97.5118 76.4498 97.064 77.002 97.064H78.3926C78.8868 97.064 79.2915 97.457 79.306 97.9511L79.3729 100.233C79.3806 100.495 79.0402 100.603 78.8951 100.385C78.8511 100.319 78.8393 100.236 78.8655 100.161C79.0721 99.5672 79.3697 99.023 79.7585 98.528C80.1892 98 80.6917 97.584 81.2659 97.28C81.8561 96.96 82.4702 96.8 83.1083 96.8C83.3954 96.8 83.6586 96.824 83.8978 96.872C84.2836 96.9204 84.4771 97.3133 84.3848 97.6909L83.8075 100.053C83.7178 100.42 83.3096 100.626 82.9408 100.544C82.6696 100.464 82.3905 100.424 82.1033 100.424C81.7365 100.424 81.3855 100.496 81.0506 100.64C80.7315 100.768 80.4444 100.96 80.1892 101.216C79.9499 101.456 79.7585 101.744 79.615 102.08C79.4874 102.416 79.4236 102.792 79.4236 103.208V108.76C79.4236 109.312 78.9758 109.76 78.4236 109.76H77.002Z" fill="white"/>
<path d="M72.1481 109.76C71.5958 109.76 71.1481 109.312 71.1481 108.76V101.816C71.1481 101.144 70.9407 100.632 70.526 100.28C70.1272 99.912 69.5849 99.728 68.899 99.728C68.245 99.728 67.6628 99.856 67.1523 100.112C66.9226 100.227 66.6992 100.372 66.4824 100.545C66.0261 100.911 65.3569 100.964 64.937 100.557L64.3492 99.9876C63.9541 99.605 63.9383 98.9696 64.3595 98.6159C64.929 98.1377 65.5409 97.7484 66.1953 97.448C67.1523 97.016 68.1891 96.8 69.3057 96.8C70.3266 96.8 71.2119 96.96 71.9616 97.28C72.7272 97.6 73.3174 98.08 73.7322 98.72C74.1469 99.36 74.3542 100.168 74.3542 101.144V108.76C74.3542 109.312 73.9065 109.76 73.3542 109.76H72.1481ZM67.6787 110C66.8812 110 66.1554 109.84 65.5014 109.52C64.8633 109.2 64.3529 108.76 63.9701 108.2C63.6032 107.624 63.4198 106.952 63.4198 106.184C63.4198 105.528 63.5394 104.952 63.7787 104.456C64.0179 103.944 64.3689 103.528 64.8314 103.208C65.31 102.872 65.9002 102.616 66.602 102.44C67.3198 102.264 68.1493 102.176 69.0904 102.176H71.724C72.3135 102.176 72.775 102.683 72.7196 103.27L72.6932 103.55C72.6447 104.064 72.2135 104.456 71.6976 104.456H69.0425C68.6597 104.456 68.3167 104.488 68.0137 104.552C67.7266 104.616 67.4793 104.72 67.272 104.864C67.0805 105.008 66.929 105.176 66.8174 105.368C66.7216 105.56 66.6738 105.784 66.6738 106.04C66.6738 106.312 66.7456 106.552 66.8891 106.76C67.0327 106.968 67.2241 107.128 67.4634 107.24C67.7186 107.352 68.0057 107.408 68.3247 107.408C68.7873 107.408 69.226 107.328 69.6407 107.168C70.0714 107.008 70.4542 106.784 70.7892 106.496C71.1615 106.176 71.8547 106.24 72.0287 106.699L72.1082 106.908C72.1817 107.102 72.1629 107.321 72.0452 107.492C71.7475 107.924 71.4006 108.312 71.0045 108.656C70.526 109.072 70.0076 109.4 69.4493 109.64C68.891 109.88 68.3008 110 67.6787 110Z" fill="white"/>
<path d="M57.0792 109.76C56.5269 109.76 56.0792 109.312 56.0792 108.76V101.384L56.2467 102.56L50.5873 94.5363C50.1201 93.8739 50.5939 92.96 51.4045 92.96H53.0688C53.3959 92.96 53.7023 93.1199 53.8893 93.3882L58.2632 99.6645C58.466 99.9556 58.2471 100.353 57.8927 100.337C57.5643 100.322 57.3743 99.9584 57.5499 99.6805L61.5033 93.4257C61.6866 93.1357 62.0056 92.96 62.3486 92.96H63.9394C64.7351 92.96 65.2121 93.8443 64.775 94.5093L59.6493 102.307C59.5791 102.413 59.4133 102.344 59.4404 102.219C59.4696 102.084 59.6682 102.105 59.6682 102.244V108.929C59.6682 109.388 59.296 109.76 58.8369 109.76H57.0792Z" fill="white"/>
<path d="M31.5011 109.76C30.9489 109.76 30.5011 109.312 30.5011 108.76V98.064C30.5011 97.5117 30.9489 97.064 31.5011 97.064H32.8083C33.349 97.064 33.7918 97.4939 33.8078 98.0344L33.8465 99.342C33.8491 99.4279 33.7931 99.5045 33.7105 99.5282C33.5615 99.5709 33.4307 99.426 33.4998 99.2872C33.6399 99.0056 33.8128 98.7445 34.0184 98.504C34.3214 98.152 34.6644 97.856 35.0472 97.616C35.43 97.376 35.8368 97.184 36.2675 97.04C36.7141 96.896 37.1528 96.824 37.5834 96.824C38.2534 96.824 38.8436 96.928 39.354 97.136C39.8804 97.344 40.327 97.672 40.6939 98.12C41.0134 98.5101 41.2664 99.0034 41.4528 99.5999C41.4919 99.725 41.382 99.8434 41.2532 99.8188C41.1393 99.7971 41.0763 99.674 41.1252 99.5689L41.1964 99.416C41.4037 99.048 41.6669 98.704 41.9859 98.384C42.305 98.064 42.6639 97.792 43.0626 97.568C43.4614 97.328 43.8761 97.144 44.3068 97.016C44.7375 96.888 45.1602 96.824 45.5749 96.824C46.5639 96.824 47.3774 97.024 48.0155 97.424C48.6694 97.824 49.156 98.416 49.475 99.2C49.81 99.968 49.9774 100.928 49.9774 102.08V108.76C49.9774 109.312 49.5297 109.76 48.9774 109.76H47.5799C47.0276 109.76 46.5799 109.312 46.5799 108.76V102.32C46.5799 101.456 46.4044 100.816 46.0535 100.4C45.7185 99.984 45.2001 99.776 44.4982 99.776C44.1314 99.776 43.7884 99.84 43.4694 99.968C43.1504 100.08 42.8792 100.248 42.6559 100.472C42.4326 100.696 42.2571 100.952 42.1295 101.24C42.0019 101.528 41.9381 101.848 41.9381 102.2V108.76C41.9381 109.312 41.4904 109.76 40.9381 109.76H39.5405C38.9882 109.76 38.5405 109.312 38.5405 108.76V102.272C38.5405 101.472 38.3571 100.856 37.9902 100.424C37.6393 99.992 37.1288 99.776 36.4589 99.776C36.108 99.776 35.773 99.84 35.454 99.968C35.1349 100.08 34.8638 100.248 34.6405 100.472C34.4171 100.68 34.2417 100.936 34.1141 101.24C33.9865 101.528 33.9227 101.848 33.9227 102.2V108.76C33.9227 109.312 33.4749 109.76 32.9227 109.76H31.5011Z" fill="white"/>
<path d="M21.216 110C20.3068 110 19.5172 109.8 18.8473 109.4C18.1773 108.984 17.6589 108.4 17.292 107.648C16.9411 106.88 16.7657 105.968 16.7657 104.912V98.0638C16.7657 97.5116 17.2134 97.0638 17.7657 97.0638H19.1632C19.7155 97.0638 20.1632 97.5116 20.1632 98.0638V104.288C20.1632 105.184 20.3706 105.888 20.7853 106.4C21.216 106.896 21.8062 107.144 22.5559 107.144C22.9387 107.144 23.2817 107.088 23.5848 106.976C23.9038 106.848 24.1749 106.672 24.3983 106.448C24.6216 106.224 24.797 105.96 24.9246 105.656C25.0523 105.352 25.1161 105.016 25.1161 104.648V98.0638C25.1161 97.5116 25.5638 97.0638 26.1161 97.0638H27.5136C28.0659 97.0638 28.5136 97.5116 28.5136 98.0638V108.76C28.5136 109.312 28.0659 109.76 27.5136 109.76H26.2476C25.7096 109.76 25.268 109.334 25.2483 108.796L25.1933 107.293C25.19 107.202 25.2406 107.118 25.3222 107.079C25.5005 106.993 25.6879 107.158 25.6059 107.338C25.4216 107.742 25.1626 108.118 24.8289 108.464C24.3823 108.944 23.8479 109.32 23.2259 109.592C22.6038 109.864 21.9338 110 21.216 110Z" fill="white"/>
<path d="M8.35454 109.76C7.80226 109.76 7.35454 109.312 7.35454 108.76V101.384L7.52203 102.56L1.86267 94.5363C1.39542 93.8738 1.8692 92.9599 2.67985 92.9599H4.34419C4.67124 92.9599 4.97762 93.1198 5.16461 93.3882L9.53851 99.6644C9.74138 99.9555 9.52247 100.353 9.16801 100.337C8.83965 100.322 8.64966 99.9583 8.82528 99.6805L12.7787 93.4256C12.9619 93.1357 13.281 92.9599 13.624 92.9599H15.2147C16.0105 92.9599 16.4874 93.8442 16.0503 94.5092L10.9246 102.307C10.8545 102.413 10.6887 102.344 10.7157 102.219C10.745 102.084 10.9435 102.105 10.9435 102.243V108.929C10.9435 109.388 10.5713 109.76 10.1122 109.76H8.35454Z" fill="white"/>
</svg>
